<svg xmlns="http://www.w3.org/2000/svg" version="1.1" xmlns:xlink="http://www.w3.org/1999/xlink" xmlns:svgjs="http://svgjs.dev/svgjs" width="128" height="128" viewBox="0 0 128 128"><g transform="matrix(0.8046875,0,0,0.8046875,12.760752631578946,20.754843612759274)"><svg viewBox="0 0 95 80" data-background-color="#d9bca9" preserveAspectRatio="xMidYMid meet" height="107" width="128" xmlns="http://www.w3.org/2000/svg" xmlns:xlink="http://www.w3.org/1999/xlink"><g id="tight-bounds" transform="matrix(1,0,0,1,-0.24049999999999727,0.18060079896062575)"><svg viewBox="0 0 95.48099999999998 79.63879840207875" height="79.63879840207875" width="95.48099999999998"><g><svg viewBox="0 0 95.48099999999998 79.63879840207875" height="79.63879840207875" width="95.48099999999998"><g><svg viewBox="0 0 95.48099999999998 79.63879840207875" height="79.63879840207875" width="95.48099999999998"><g><svg viewBox="0 0 95.48099999999998 79.63879840207875" height="79.63879840207875" width="95.48099999999998"><g><svg viewBox="0 0 95.48099999999998 79.63879840207875" height="79.63879840207875" width="95.48099999999998"><g><svg viewBox="0 0 95.48099999999998 79.63879840207875" height="79.63879840207875" width="95.48099999999998"><g><svg xmlns="http://www.w3.org/2000/svg" xmlns:xlink="http://www.w3.org/1999/xlink" version="1.1" x="0" y="0" viewBox="4.562999999999992 13.694774208543011 93.375 77.88222579145699" enable-background="new 0 0 100 100" xml:space="preserve" height="79.63879840207875" width="95.48099999999998" class="icon-icon-0" data-fill-palette-color="accent" id="icon-0"><path fill-rule="evenodd" clip-rule="evenodd" d="M95.934 26.48l-3.713 8.296c-1.01 1.928-2.794 3.025-5.35 3.293h-1.395c-1.708-0.105-3.567-0.14-5.577-0.105-2.429 0.395-4.59 0.912-6.483 1.551-1.511 0.5-3.027 0.576-4.55 0.227-0.615-0.174-1.487-0.512-2.614-1.011-0.418-0.209-1.487-0.931-3.207-2.162-1.789-1.29-3.485-2.329-5.089-3.119-1.405-0.768-4.101-2.046-8.087-3.835-2.277-1.104-3.753-2.097-4.426-2.979-0.663-0.895-0.75-1.976-0.262-3.242 0.267-0.72 0.808-1.255 1.621-1.604 1.138-0.581 2.498-0.535 4.079 0.14 1.904 0.86 3.224 1.453 3.956 1.778 1.29 0.581 3.317 1.325 6.082 2.23 0.942 0.291 1.883 0.489 2.823 0.593h1.203l-1.08-0.488c-6.356-2.916-10.533-4.799-12.531-5.647-1.952-0.813-3.643-0.941-5.072-0.382-1.383 0.581-2.335 1.417-2.858 2.509-0.279 0.616-0.471 1.447-0.575 2.492-0.744-0.046-2.26-0.111-4.549-0.192-4.799 2.313-7.401 3.544-7.808 3.695-0.941 0.314-1.906 0.488-2.893 0.523-1.081-0.024-1.876-0.216-2.388-0.576-0.604-0.255-1.034-0.895-1.29-1.917-0.175-1.047 0.737-2.179 2.736-3.399l10.596-6.867c5.101-0.603 10.08-1.423 14.937-2.457 1.068-0.244 2.103-0.145 3.102 0.296 3.115 1.604 6.659 3.23 10.632 4.88 1.977 0.813 3.887 1.575 5.734 2.284 3.277 1.057 6.024 1.667 8.244 1.83h0.018c2.439 0.023 7.784-0.941 16.034-2.894C98.606 19.631 98.606 21.717 95.934 26.48z" fill="#000000" data-fill-palette-color="accent"></path><path fill-rule="evenodd" clip-rule="evenodd" d="M25.73 31.831c3.405 5.019 6.298 10.091 8.68 15.215 3.764 8.168 5.49 15.047 5.176 20.636-0.058 0.302-0.209 0.604-0.453 0.906-0.348 0.384-0.604 0.61-0.767 0.68-4.276 1.371-8.511 1.731-12.706 1.081-6.309-1.139-11.741-4.619-16.295-10.439 0.825-7.576 2.347-13.485 4.566-17.726l2.962-4.113C19.567 35.154 22.512 33.075 25.73 31.831z" fill="#000000" data-fill-palette-color="accent"></path><path fill-rule="evenodd" clip-rule="evenodd" d="M79.011 48.388c-0.709-0.917-1.587-1.476-2.632-1.672-9.572 0.235-14.992-1.101-16.261-4.009-2.406-5.798-6.397-9.499-11.974-11.102-5.577-1.592-11.648-0.93-18.213 1.986 2.893 4.613 5.287 9.132 7.18 13.56 3.509 7.878 5.072 14.617 4.688 20.218 0 1.022-0.389 1.992-1.167 2.91-0.686 0.93-1.511 1.546-2.475 1.849-3.01 1.01-7.129 1.301-12.357 0.871-5.24-0.442-10.904-3.167-16.993-8.175-1.385 6.83-2.799 11.271-4.244 13.324 14.306 8.29 28.217 12.767 41.733 13.429 2.091-7.355 3.184-11.137 3.277-11.346 0.523-1.36 0.837-2.133 0.941-2.318 0.244-0.406 0.546-0.784 0.906-1.133 0.789-0.778 1.69-1.243 2.702-1.395 5.959-0.813 11.095-2.66 15.406-5.542 6.519-4.321 9.997-10.521 10.439-18.597C80.063 50.224 79.742 49.271 79.011 48.388zM53.181 50.445c-0.686 0.674-1.51 1.01-2.475 1.01-0.988 0-1.818-0.336-2.493-1.01-0.685-0.674-1.028-1.505-1.028-2.492 0-0.977 0.343-1.802 1.028-2.475 0.674-0.674 1.504-1.012 2.493-1.012 0.965 0 1.789 0.337 2.475 1.012 0.675 0.673 1.012 1.498 1.012 2.475C54.192 48.939 53.855 49.771 53.181 50.445z" fill="#000000" data-fill-palette-color="accent"></path></svg></g></svg></g></svg></g></svg></g></svg></g></svg></g><defs></defs></svg><rect width="95.48099999999998" height="79.63879840207875" fill="none" stroke="none" visibility="hidden"></rect></g></svg></g></svg>